<?xml version="1.0" encoding="utf-8"?>
<!-- Generator: Adobe Illustrator 18.1.1, SVG Export Plug-In . SVG Version: 6.00 Build 0)  -->
<svg version="1.1" xmlns="http://www.w3.org/2000/svg" xmlns:xlink="http://www.w3.org/1999/xlink" x="0px" y="0px"
	 viewBox="0 0 638.8 471" enable-background="new 0 0 638.8 471" xml:space="preserve">
<g id="separate">
</g>
<g id="code">
	<path fill="#C8CACC" d="M37.1,31.4c-0.6,0-1.2,0.2-1.5,0.6c-0.3,0.4-0.7,1-0.7,1.8V43h-3V13h-9.1c-0.6,0-1.1,0.1-1.5,0.5
		s-0.6,0.9-0.6,1.5c0,0.7,0.2,1.1,0.6,1.5c0.4,0.4,0.9,0.5,1.5,0.5H28v26h-5.1c-0.6,0-1.1,0-1.5,0.4c-0.4,0.4-0.6,0.8-0.6,1.5
		c0,0.7,0.2,1.1,0.6,1.5c0.4,0.4,0.9,0.6,1.5,0.6h14.1c0.6,0,1.1-0.2,1.5-0.6c0.4-0.4,0.6-0.9,0.6-1.6V33.9c0-0.7-0.2-1.3-0.5-1.8
		C38.1,31.6,37.7,31.4,37.1,31.4z"/>
	<path fill="#C8CACC" d="M62,13H52c-1.3,0-2.3,0.3-3,1.2c-0.7,0.8-1,1.9-1,3.5v24.4c0,1.6,0.3,2.8,1,3.6c0.7,0.8,1.7,1.3,3,1.3h10
		c1.3,0,2.3-0.4,3-1.3c0.7-0.8,1-2,1-3.6V17.7c0-1.6-0.3-2.7-1-3.5C64.3,13.3,63.4,13,62,13z M62,43H52V17h10V43z"/>
	<path fill="#C8CACC" d="M91.4,205.4c-0.6,0-0.8,0.2-1.1,0.6c-0.3,0.4-0.3,1-0.3,1.8v9.2h-4v-30h-8.8c-0.6,0-1.1,0.1-1.5,0.5
		c-0.4,0.4-0.6,0.9-0.6,1.5c0,0.7,0.2,1.1,0.6,1.5c0.4,0.4,0.9,0.5,1.5,0.5H82v26h-4.8c-0.6,0-1.1,0-1.5,0.4
		c-0.4,0.4-0.6,0.8-0.6,1.5c0,0.7,0.2,1.1,0.6,1.6c0.4,0.4,0.9,0.6,1.5,0.6h14.1c0.6,0,0.9-0.2,1.3-0.6c0.4-0.4,0.4-1,0.4-1.6v-10.9
		c0-0.7,0-1.3-0.4-1.8C92.3,205.6,92,205.4,91.4,205.4z"/>
	<path fill="#C8CACC" d="M62,187H52c-1.3,0-2.3,0.3-3,1.1c-0.7,0.8-1,1.9-1,3.5v24.4c0,1.6,0.3,2.8,1,3.6c0.7,0.8,1.7,1.3,3,1.3h10
		c1.3,0,2.3-0.4,3-1.3c0.7-0.8,1-2.1,1-3.6v-24.4c0-1.6-0.3-2.7-1-3.5C64.3,187.3,63.4,187,62,187z M62,217H52v-26h10V217z"/>
	<path fill="#C8CACC" d="M64.3,89.4c-0.6,0-1.2,0.2-1.6,0.6c-0.3,0.4-0.7,1-0.7,1.8v9.2h-3V71h-9c-0.6,0-1.1,0.1-1.5,0.5
		C48.1,71.9,48,72.4,48,73c0,0.7,0.2,1.1,0.6,1.5c0.4,0.4,0.9,0.5,1.5,0.5h5v26h-5c-0.6,0-1.1,0-1.5,0.4c-0.4,0.4-0.6,0.8-0.6,1.5
		s0.2,1.1,0.6,1.5c0.4,0.4,0.9,0.6,1.5,0.6h14.1c0.6,0,1-0.2,1.4-0.6c0.4-0.4,0.5-1,0.5-1.6V91.8c0-0.7-0.1-1.3-0.4-1.8
		C65.2,89.6,64.8,89.4,64.3,89.4z"/>
	<path fill="#C8CACC" d="M64.3,147.4c-0.6,0-1.2,0.2-1.6,0.6c-0.3,0.4-0.7,1-0.7,1.8v9.2h-3v-30h-9c-0.6,0-1.1,0.1-1.5,0.5
		c-0.4,0.4-0.6,0.9-0.6,1.5c0,0.7,0.2,1.1,0.6,1.5c0.4,0.4,0.9,0.5,1.5,0.5h5v26h-5c-0.6,0-1.1,0-1.5,0.4c-0.4,0.4-0.6,0.8-0.6,1.5
		c0,0.7,0.2,1.1,0.6,1.5c0.4,0.4,0.9,0.6,1.5,0.6h14.1c0.6,0,1-0.2,1.4-0.6c0.4-0.4,0.5-0.9,0.5-1.6v-10.9c0-0.7-0.1-1.3-0.4-1.7
		C65.2,147.6,64.8,147.4,64.3,147.4z"/>
	<path fill="#C8CACC" d="M34.9,71h-10c-1.3,0-2.2,0.3-2.9,1.2c-0.7,0.8-1,1.9-1,3.5v24.4c0,1.6,0.3,2.8,1,3.6
		c0.7,0.8,1.6,1.3,2.9,1.3h10c1.3,0,2.3-0.4,3-1.3c0.7-0.8,1.1-2,1.1-3.6V75.7c0-1.6-0.4-2.7-1.1-3.5C37.2,71.3,36.2,71,34.9,71z
		 M35,101H24V75h11V101z"/>
	<path fill="#C8CACC" d="M34.9,129h-10c-1.3,0-2.2,0.3-2.9,1.2c-0.7,0.8-1,1.9-1,3.5v24.4c0,1.6,0.3,2.8,1,3.6
		c0.7,0.8,1.6,1.3,2.9,1.3h10c1.3,0,2.3-0.4,3-1.3c0.7-0.8,1.1-2.1,1.1-3.6v-24.4c0-1.6-0.4-2.7-1.1-3.5
		C37.2,129.3,36.2,129,34.9,129z M35,159H24v-26h11V159z"/>
	<path fill="#C8CACC" d="M37.1,205.4c-0.6,0-1.2,0.2-1.5,0.6c-0.3,0.4-0.7,1-0.7,1.8v9.2h-3v-30h-9.1c-0.6,0-1.1,0.1-1.5,0.5
		c-0.4,0.4-0.6,0.9-0.6,1.5c0,0.7,0.2,1.1,0.6,1.5c0.4,0.4,0.9,0.5,1.5,0.5H28v26h-5.1c-0.6,0-1.1,0-1.5,0.4
		c-0.4,0.4-0.6,0.8-0.6,1.5c0,0.7,0.2,1.1,0.6,1.6c0.4,0.4,0.9,0.6,1.5,0.6h14.1c0.6,0,1.1-0.2,1.5-0.6c0.4-0.4,0.6-1,0.6-1.6v-10.9
		c0-0.7-0.2-1.3-0.5-1.8C38.1,205.6,37.7,205.4,37.1,205.4z"/>
	<path fill="#C8CACC" d="M550.7,129h-10c-1.3,0-2.1,0.3-2.8,1.2c-0.7,0.8-0.9,1.9-0.9,3.5v24.4c0,1.6,0.1,2.8,0.9,3.6
		c0.7,0.8,1.5,1.3,2.8,1.3h10c1.3,0,2.4-0.4,3.1-1.3c0.7-0.8,1.2-2.1,1.2-3.6v-24.4c0-1.6-0.5-2.7-1.2-3.5
		C553.1,129.3,552,129,550.7,129z M551,159h-11v-26h11V159z"/>
	<path fill="#C8CACC" d="M552.9,31.4c-0.6,0-1.1,0.2-1.4,0.6c-0.3,0.4-0.5,1-0.5,1.8V43h-3V13h-9.3c-0.6,0-1.1,0.1-1.5,0.5
		c-0.4,0.4-0.6,0.9-0.6,1.5c0,0.7,0.2,1.1,0.6,1.5c0.4,0.4,0.9,0.5,1.5,0.5h5.3v26h-5.3c-0.6,0-1.1,0-1.5,0.4
		c-0.4,0.4-0.6,0.8-0.6,1.5c0,0.7,0.2,1.1,0.6,1.5c0.4,0.4,0.9,0.6,1.5,0.6h14.1c0.6,0,1.2-0.2,1.6-0.6c0.4-0.4,0.7-0.9,0.7-1.6
		V33.9c0-0.7-0.3-1.3-0.6-1.8C554,31.6,553.5,31.4,552.9,31.4z"/>
	<path fill="#C8CACC" d="M580.1,205.4c-0.6,0-1.1,0.2-1.5,0.6c-0.3,0.4-0.6,1-0.6,1.8v9.2h-3v-30h-9.2c-0.6,0-1.1,0.1-1.5,0.5
		c-0.4,0.4-0.6,0.9-0.6,1.5c0,0.7,0.2,1.1,0.6,1.5c0.4,0.4,0.9,0.5,1.5,0.5h5.2v26h-5.2c-0.6,0-1.1,0-1.5,0.4
		c-0.4,0.4-0.6,0.8-0.6,1.5c0,0.7,0.2,1.1,0.6,1.6c0.4,0.4,0.9,0.6,1.5,0.6h14.1c0.6,0,1.1-0.2,1.5-0.6c0.4-0.4,0.6-1,0.6-1.6v-10.9
		c0-0.7-0.2-1.3-0.6-1.8C581.1,205.6,580.6,205.4,580.1,205.4z"/>
	<path fill="#C8CACC" d="M550.7,187h-10c-1.3,0-2.1,0.3-2.8,1.1c-0.7,0.8-0.9,1.9-0.9,3.5v24.4c0,1.6,0.1,2.8,0.9,3.6
		c0.7,0.8,1.5,1.3,2.8,1.3h10c1.3,0,2.4-0.4,3.1-1.3c0.7-0.8,1.2-2.1,1.2-3.6v-24.4c0-1.6-0.5-2.7-1.2-3.5
		C553.1,187.3,552,187,550.7,187z M551,217h-11v-26h11V217z"/>
	<path fill="#C8CACC" d="M607.2,147.4c-0.6,0-1.2,0.2-1.5,0.6c-0.3,0.4-0.7,1-0.7,1.8v9.2h-3v-30h-9.1c-0.6,0-1.1,0.1-1.5,0.5
		c-0.4,0.4-0.6,0.9-0.6,1.5c0,0.7,0.2,1.1,0.6,1.5c0.4,0.4,0.9,0.5,1.5,0.5h5.1v26h-5.1c-0.6,0-1.1,0-1.5,0.4
		c-0.4,0.4-0.6,0.8-0.6,1.5c0,0.7,0.2,1.1,0.6,1.5c0.4,0.4,0.9,0.6,1.5,0.6H607c0.6,0,1.1-0.2,1.4-0.6c0.4-0.4,0.5-0.9,0.5-1.6
		v-10.9c0-0.7-0.1-1.3-0.5-1.7C608.2,147.6,607.8,147.4,607.2,147.4z"/>
	<path fill="#C8CACC" d="M577.8,129h-10c-1.3,0-2.2,0.3-2.9,1.2c-0.7,0.8-0.9,1.9-0.9,3.5v24.4c0,1.6,0.2,2.8,0.9,3.6
		c0.7,0.8,1.6,1.3,2.9,1.3h10c1.3,0,2.4-0.4,3.1-1.3c0.7-0.8,1.1-2.1,1.1-3.6v-24.4c0-1.6-0.4-2.7-1.1-3.5
		C580.2,129.3,579.1,129,577.8,129z M578,159h-11v-26h11V159z"/>
	<path fill="#C8CACC" d="M608.5,32.1c-0.3-0.4-0.8-0.7-1.3-0.7c-0.6,0-1.2,0.2-1.5,0.6c-0.3,0.4-0.7,1-0.7,1.8V43h-3V13h-9.1
		c-0.6,0-1.1,0.1-1.5,0.5c-0.4,0.4-0.6,0.9-0.6,1.5c0,0.7,0.2,1.1,0.6,1.5c0.4,0.4,0.9,0.5,1.5,0.5h5.1v26h-5.1
		c-0.6,0-1.1,0-1.5,0.4c-0.4,0.4-0.6,0.8-0.6,1.5c0,0.7,0.2,1.1,0.6,1.5c0.4,0.4,0.9,0.6,1.5,0.6H607c0.6,0,1.1-0.2,1.4-0.6
		c0.4-0.4,0.5-0.9,0.5-1.6V33.9C609,33.1,608.9,32.5,608.5,32.1z"/>
	<path fill="#C8CACC" d="M607.2,89.4c-0.6,0-1.2,0.2-1.5,0.6c-0.3,0.4-0.7,1-0.7,1.8v9.2h-3V71h-9.1c-0.6,0-1.1,0.1-1.5,0.5
		c-0.4,0.4-0.6,0.9-0.6,1.5c0,0.7,0.2,1.1,0.6,1.5c0.4,0.4,0.9,0.5,1.5,0.5h5.1v26h-5.1c-0.6,0-1.1,0-1.5,0.4
		c-0.4,0.4-0.6,0.8-0.6,1.5s0.2,1.1,0.6,1.5c0.4,0.4,0.9,0.6,1.5,0.6H607c0.6,0,1.1-0.2,1.4-0.6c0.4-0.4,0.5-1,0.5-1.6V91.8
		c0-0.7-0.1-1.3-0.5-1.8C608.2,89.6,607.8,89.4,607.2,89.4z"/>
	<path fill="#C8CACC" d="M577.8,71h-10c-1.3,0-2.2,0.3-2.9,1.2c-0.7,0.8-0.9,1.9-0.9,3.5v24.4c0,1.6,0.2,2.8,0.9,3.6
		c0.7,0.8,1.6,1.3,2.9,1.3h10c1.3,0,2.4-0.4,3.1-1.3c0.7-0.8,1.1-2,1.1-3.6V75.7c0-1.6-0.4-2.7-1.1-3.5
		C580.2,71.3,579.1,71,577.8,71z M578,101h-11V75h11V101z"/>
	<path fill="#C8CACC" d="M577.8,13h-10c-1.3,0-2.2,0.3-2.9,1.2c-0.7,0.8-0.9,1.9-0.9,3.5v24.4c0,1.6,0.2,2.8,0.9,3.6
		c0.7,0.8,1.6,1.3,2.9,1.3h10c1.3,0,2.4-0.4,3.1-1.3c0.7-0.8,1.1-2,1.1-3.6V17.7c0-1.6-0.4-2.7-1.1-3.5
		C580.2,13.3,579.1,13,577.8,13z M578,43h-11V17h11V43z"/>
	<path fill="#C8CACC" d="M605,187h-10c-1.3,0-2.3,0.3-3,1.1c-0.7,0.8-1,1.9-1,3.5v24.4c0,1.6,0.3,2.8,1,3.6c0.7,0.8,1.6,1.3,3,1.3
		h10c1.3,0,2.3-0.4,3-1.3c0.7-0.8,1-2.1,1-3.6v-24.4c0-1.6-0.3-2.7-1-3.5C607.3,187.3,606.3,187,605,187z M605,217h-10v-26h10V217z"
		/>
	<path fill="#C8CACC" d="M91.4,31.4c-0.6,0-0.8,0.2-1.1,0.6c-0.3,0.4-0.3,1-0.3,1.8V43h-4V13h-8.8c-0.6,0-1.1,0.1-1.5,0.5
		c-0.4,0.4-0.6,0.9-0.6,1.5c0,0.7,0.2,1.1,0.6,1.5c0.4,0.4,0.9,0.5,1.5,0.5H82v26h-4.8c-0.6,0-1.1,0-1.5,0.4
		c-0.4,0.4-0.6,0.8-0.6,1.5c0,0.7,0.2,1.1,0.6,1.5c0.4,0.4,0.9,0.6,1.5,0.6h14.1c0.6,0,0.9-0.2,1.3-0.6C93,46,93,45.4,93,44.8V33.9
		c0-0.7,0-1.3-0.4-1.8C92.3,31.6,92,31.4,91.4,31.4z"/>
	<path fill="#C8CACC" d="M89.2,129h-10c-1.3,0-2.4,0.3-3.1,1.2c-0.7,0.8-1.1,1.9-1.1,3.5v24.4c0,1.6,0.4,2.8,1.1,3.6
		c0.7,0.8,1.8,1.3,3.1,1.3h10c1.3,0,2.2-0.4,2.9-1.3c0.7-0.8,0.9-2.1,0.9-3.6v-24.4c0-1.6-0.2-2.7-0.9-3.5
		C91.4,129.3,90.5,129,89.2,129z M90,159H79v-26h11V159z"/>
	<path fill="#C8CACC" d="M89.2,71h-10c-1.3,0-2.4,0.3-3.1,1.2C75.4,73,75,74.1,75,75.7v24.4c0,1.6,0.4,2.8,1.1,3.6
		c0.7,0.8,1.8,1.3,3.1,1.3h10c1.3,0,2.2-0.4,2.9-1.3c0.7-0.8,0.9-2,0.9-3.6V75.7c0-1.6-0.2-2.7-0.9-3.5C91.4,71.3,90.5,71,89.2,71z
		 M90,101H79V75h11V101z"/>
	<path fill="#C8CACC" d="M62,413H52c-1.3,0-2.3,0.4-3,1.2c-0.7,0.8-1,2-1,3.6v24.4c0,1.6,0.3,2.7,1,3.5c0.7,0.8,1.7,1.2,3,1.2h10
		c1.3,0,2.3-0.3,3-1.2c0.7-0.8,1-1.9,1-3.5v-24.4c0-1.6-0.3-2.8-1-3.6C64.3,413.4,63.4,413,62,413z M62,443H52v-26h10V443z"/>
	<path fill="#C8CACC" d="M64.3,373.6c-0.6,0-1.2,0.2-1.6,0.6c-0.3,0.4-0.7,1-0.7,1.8v9h-3v-30h-9c-0.6,0-1.1,0.2-1.5,0.6
		c-0.4,0.4-0.6,0.9-0.6,1.6c0,0.7,0.2,1,0.6,1.4c0.4,0.4,0.9,0.4,1.5,0.4h5v26h-5c-0.6,0-1.1,0.1-1.5,0.5c-0.4,0.4-0.6,0.9-0.6,1.5
		c0,0.7,0.2,1.1,0.6,1.5c0.4,0.4,0.9,0.5,1.5,0.5h14.1c0.6,0,1-0.1,1.4-0.5c0.4-0.4,0.5-0.8,0.5-1.5V376c0-0.7-0.1-1.3-0.4-1.8
		C65.2,373.8,64.8,373.6,64.3,373.6z"/>
	<path fill="#C8CACC" d="M37.1,257.6c-0.6,0-1.2,0.2-1.5,0.6c-0.3,0.4-0.7,1-0.7,1.8v8.9h-3v-30h-9.1c-0.6,0-1.1,0.2-1.5,0.6
		s-0.6,0.9-0.6,1.6c0,0.7,0.2,1,0.6,1.4c0.4,0.4,0.9,0.4,1.5,0.4H28v26h-5.1c-0.6,0-1.1,0.1-1.5,0.5c-0.4,0.4-0.6,0.9-0.6,1.5
		c0,0.7,0.2,1,0.6,1.5c0.4,0.4,0.9,0.5,1.5,0.5h14.1c0.6,0,1.1-0.1,1.5-0.5c0.4-0.4,0.6-0.8,0.6-1.5v-10.9c0-0.7-0.2-1.3-0.5-1.8
		C38.1,257.8,37.7,257.6,37.1,257.6z"/>
	<path fill="#C8CACC" d="M37.1,431.6c-0.6,0-1.2,0.2-1.5,0.6c-0.3,0.4-0.7,1-0.7,1.8v9h-3v-30h-9.1c-0.6,0-1.1,0.2-1.5,0.6
		c-0.4,0.4-0.6,0.9-0.6,1.6c0,0.7,0.2,1,0.6,1.4c0.4,0.4,0.9,0.4,1.5,0.4H28v26h-5.1c-0.6,0-1.1,0.1-1.5,0.5
		c-0.4,0.4-0.6,0.9-0.6,1.5c0,0.7,0.2,1.1,0.6,1.5c0.4,0.4,0.9,0.5,1.5,0.5h14.1c0.6,0,1.1-0.1,1.5-0.5c0.4-0.4,0.6-0.9,0.6-1.5V434
		c0-0.7-0.2-1.3-0.5-1.8C38.1,431.8,37.7,431.6,37.1,431.6z"/>
	<path fill="#C8CACC" d="M64.3,315.6c-0.6,0-1.2,0.2-1.6,0.6c-0.3,0.4-0.7,1-0.7,1.8v9h-3v-30h-9c-0.6,0-1.1,0.2-1.5,0.6
		c-0.4,0.4-0.6,0.9-0.6,1.6c0,0.7,0.2,1,0.6,1.4c0.4,0.4,0.9,0.4,1.5,0.4h5v26h-5c-0.6,0-1.1,0.1-1.5,0.5c-0.4,0.4-0.6,0.9-0.6,1.5
		s0.2,1.1,0.6,1.5c0.4,0.4,0.9,0.5,1.5,0.5h14.1c0.6,0,1-0.1,1.4-0.5c0.4-0.4,0.5-0.8,0.5-1.5V318c0-0.7-0.1-1.3-0.4-1.8
		C65.2,315.8,64.8,315.6,64.3,315.6z"/>
	<path fill="#C8CACC" d="M34.9,297h-10c-1.3,0-2.2,0.4-2.9,1.3c-0.7,0.8-1,2-1,3.6v24.4c0,1.6,0.3,2.7,1,3.5
		c0.7,0.8,1.6,1.2,2.9,1.2h10c1.3,0,2.3-0.3,3-1.2c0.7-0.8,1.1-1.9,1.1-3.5v-24.4c0-1.6-0.4-2.8-1.1-3.6
		C37.2,297.4,36.2,297,34.9,297z M35,327H24v-26h11V327z"/>
	<path fill="#C8CACC" d="M34.9,355h-10c-1.3,0-2.2,0.4-2.9,1.3c-0.7,0.8-1,2-1,3.6v24.4c0,1.6,0.3,2.7,1,3.5
		c0.7,0.8,1.6,1.2,2.9,1.2h10c1.3,0,2.3-0.3,3-1.2c0.7-0.8,1.1-1.9,1.1-3.5v-24.4c0-1.6-0.4-2.8-1.1-3.6
		C37.2,355.4,36.2,355,34.9,355z M35,385H24v-26h11V385z"/>
	<path fill="#C8CACC" d="M89.2,355h-10c-1.3,0-2.4,0.4-3.1,1.3c-0.7,0.8-1.1,2-1.1,3.6v24.4c0,1.6,0.4,2.7,1.1,3.5
		c0.7,0.8,1.8,1.2,3.1,1.2h10c1.3,0,2.2-0.3,2.9-1.2c0.7-0.8,0.9-1.9,0.9-3.5v-24.4c0-1.6-0.2-2.8-0.9-3.6
		C91.4,355.4,90.5,355,89.2,355z M90,385H79v-26h11V385z"/>
	<path fill="#C8CACC" d="M62,239H52c-1.3,0-2.3,0.4-3,1.3c-0.7,0.8-1,2-1,3.6v24.4c0,1.6,0.3,2.7,1,3.5c0.7,0.8,1.7,1.2,3,1.2h10
		c1.3,0,2.3-0.3,3-1.2c0.7-0.8,1-1.9,1-3.5v-24.4c0-1.6-0.3-2.8-1-3.6C64.3,239.4,63.4,239,62,239z M62,269H52v-26h10V269z"/>
	<path fill="#C8CACC" d="M89.2,297h-10c-1.3,0-2.4,0.4-3.1,1.3c-0.7,0.8-1.1,2-1.1,3.6v24.4c0,1.6,0.4,2.7,1.1,3.5
		c0.7,0.8,1.8,1.2,3.1,1.2h10c1.3,0,2.2-0.3,2.9-1.2c0.7-0.8,0.9-1.9,0.9-3.5v-24.4c0-1.6-0.2-2.8-0.9-3.6
		C91.4,297.4,90.5,297,89.2,297z M90,327H79v-26h11V327z"/>
	<path fill="#C8CACC" d="M91.4,257.6c-0.6,0-0.8,0.2-1.1,0.6c-0.3,0.4-0.3,1-0.3,1.8v8.9h-4v-30h-8.8c-0.6,0-1.1,0.2-1.5,0.6
		c-0.4,0.4-0.6,0.9-0.6,1.6c0,0.7,0.2,1,0.6,1.4c0.4,0.4,0.9,0.4,1.5,0.4H82v26h-4.8c-0.6,0-1.1,0.1-1.5,0.5
		c-0.4,0.4-0.6,0.9-0.6,1.5c0,0.7,0.2,1,0.6,1.5c0.4,0.4,0.9,0.5,1.5,0.5h14.1c0.6,0,0.9-0.1,1.3-0.5c0.4-0.4,0.4-0.8,0.4-1.5v-10.9
		c0-0.7,0-1.3-0.4-1.8C92.3,257.8,92,257.6,91.4,257.6z"/>
	<path fill="#C8CACC" d="M91.4,431.6c-0.6,0-0.8,0.2-1.1,0.6c-0.3,0.4-0.3,1-0.3,1.8v9h-4v-30h-8.8c-0.6,0-1.1,0.2-1.5,0.6
		c-0.4,0.4-0.6,0.9-0.6,1.6c0,0.7,0.2,1,0.6,1.4c0.4,0.4,0.9,0.4,1.5,0.4H82v26h-4.8c-0.6,0-1.1,0.1-1.5,0.5
		c-0.4,0.4-0.6,0.9-0.6,1.5c0,0.7,0.2,1.1,0.6,1.5c0.4,0.4,0.9,0.5,1.5,0.5h14.1c0.6,0,0.9-0.1,1.3-0.5c0.4-0.4,0.4-0.9,0.4-1.5V434
		c0-0.7,0-1.3-0.4-1.8C92.3,431.8,92,431.6,91.4,431.6z"/>
	<path fill="#C8CACC" d="M550.7,355h-10c-1.3,0-2.1,0.4-2.8,1.3c-0.7,0.8-0.9,2-0.9,3.6v24.4c0,1.6,0.1,2.7,0.9,3.5
		c0.7,0.8,1.5,1.2,2.8,1.2h10c1.3,0,2.4-0.3,3.1-1.2c0.7-0.8,1.2-1.9,1.2-3.5v-24.4c0-1.6-0.5-2.8-1.2-3.6
		C553.1,355.4,552,355,550.7,355z M551,385h-11v-26h11V385z"/>
	<path fill="#C8CACC" d="M580.1,431.6c-0.6,0-1.1,0.2-1.5,0.6c-0.3,0.4-0.6,1-0.6,1.8v9h-3v-30h-9.2c-0.6,0-1.1,0.2-1.5,0.6
		c-0.4,0.4-0.6,0.9-0.6,1.6c0,0.7,0.2,1,0.6,1.4c0.4,0.4,0.9,0.4,1.5,0.4h5.2v26h-5.2c-0.6,0-1.1,0.1-1.5,0.5
		c-0.4,0.4-0.6,0.9-0.6,1.5c0,0.7,0.2,1.1,0.6,1.5c0.4,0.4,0.9,0.5,1.5,0.5h14.1c0.6,0,1.1-0.1,1.5-0.5c0.4-0.4,0.6-0.9,0.6-1.5V434
		c0-0.7-0.2-1.3-0.6-1.8C581.1,431.8,580.6,431.6,580.1,431.6z"/>
	<path fill="#C8CACC" d="M552.9,257.6c-0.6,0-1.1,0.2-1.4,0.6c-0.3,0.4-0.5,1-0.5,1.8v8.9h-3v-30h-9.3c-0.6,0-1.1,0.2-1.5,0.6
		c-0.4,0.4-0.6,0.9-0.6,1.6c0,0.7,0.2,1,0.6,1.4c0.4,0.4,0.9,0.4,1.5,0.4h5.3v26h-5.3c-0.6,0-1.1,0.1-1.5,0.5
		c-0.4,0.4-0.6,0.9-0.6,1.5c0,0.7,0.2,1,0.6,1.5c0.4,0.4,0.9,0.5,1.5,0.5h14.1c0.6,0,1.2-0.1,1.6-0.5c0.4-0.4,0.7-0.8,0.7-1.5v-10.9
		c0-0.7-0.3-1.3-0.6-1.8C554,257.8,553.5,257.6,552.9,257.6z"/>
	<path fill="#C8CACC" d="M550.7,413h-10c-1.3,0-2.1,0.4-2.8,1.2c-0.7,0.8-0.9,2-0.9,3.6v24.4c0,1.6,0.1,2.7,0.9,3.5
		c0.7,0.8,1.5,1.2,2.8,1.2h10c1.3,0,2.4-0.3,3.1-1.2c0.7-0.8,1.2-1.9,1.2-3.5v-24.4c0-1.6-0.5-2.8-1.2-3.6
		C553.1,413.4,552,413,550.7,413z M551,443h-11v-26h11V443z"/>
	<path fill="#C8CACC" d="M552.9,315.6c-0.6,0-1.1,0.2-1.4,0.6c-0.3,0.4-0.5,1-0.5,1.8v9h-3v-30h-9.3c-0.6,0-1.1,0.2-1.5,0.6
		c-0.4,0.4-0.6,0.9-0.6,1.6c0,0.7,0.2,1,0.6,1.4c0.4,0.4,0.9,0.4,1.5,0.4h5.3v26h-5.3c-0.6,0-1.1,0.1-1.5,0.5
		c-0.4,0.4-0.6,0.9-0.6,1.5s0.2,1.1,0.6,1.5c0.4,0.4,0.9,0.5,1.5,0.5h14.1c0.6,0,1.2-0.1,1.6-0.5c0.4-0.4,0.7-0.8,0.7-1.5V318
		c0-0.7-0.3-1.3-0.6-1.8C554,315.8,553.5,315.6,552.9,315.6z"/>
	<path fill="#C8CACC" d="M607.2,315.6c-0.6,0-1.2,0.2-1.5,0.6c-0.3,0.4-0.7,1-0.7,1.8v9h-3v-30h-9.1c-0.6,0-1.1,0.2-1.5,0.6
		c-0.4,0.4-0.6,0.9-0.6,1.6c0,0.7,0.2,1,0.6,1.4c0.4,0.4,0.9,0.4,1.5,0.4h5.1v26h-5.1c-0.6,0-1.1,0.1-1.5,0.5
		c-0.4,0.4-0.6,0.9-0.6,1.5s0.2,1.1,0.6,1.5c0.4,0.4,0.9,0.5,1.5,0.5H607c0.6,0,1.1-0.1,1.4-0.5c0.4-0.4,0.5-0.8,0.5-1.5V318
		c0-0.7-0.1-1.3-0.5-1.8C608.2,315.8,607.8,315.6,607.2,315.6z"/>
	<path fill="#C8CACC" d="M608.5,258.3c-0.3-0.4-0.8-0.7-1.3-0.7c-0.6,0-1.2,0.2-1.5,0.6c-0.3,0.4-0.7,1-0.7,1.8v8.9h-3v-30h-9.1
		c-0.6,0-1.1,0.2-1.5,0.6c-0.4,0.4-0.6,0.9-0.6,1.6c0,0.7,0.2,1,0.6,1.4c0.4,0.4,0.9,0.4,1.5,0.4h5.1v26h-5.1
		c-0.6,0-1.1,0.1-1.5,0.5c-0.4,0.4-0.6,0.9-0.6,1.5c0,0.7,0.2,1,0.6,1.5c0.4,0.4,0.9,0.5,1.5,0.5H607c0.6,0,1.1-0.1,1.4-0.5
		c0.4-0.4,0.5-0.8,0.5-1.5v-10.9C609,259.3,608.9,258.7,608.5,258.3z"/>
	<path fill="#C8CACC" d="M607.2,373.6c-0.6,0-1.2,0.2-1.5,0.6c-0.3,0.4-0.7,1-0.7,1.8v9h-3v-30h-9.1c-0.6,0-1.1,0.2-1.5,0.6
		c-0.4,0.4-0.6,0.9-0.6,1.6c0,0.7,0.2,1,0.6,1.4c0.4,0.4,0.9,0.4,1.5,0.4h5.1v26h-5.1c-0.6,0-1.1,0.1-1.5,0.5
		c-0.4,0.4-0.6,0.9-0.6,1.5c0,0.7,0.2,1.1,0.6,1.5c0.4,0.4,0.9,0.5,1.5,0.5H607c0.6,0,1.1-0.1,1.4-0.5c0.4-0.4,0.5-0.8,0.5-1.5V376
		c0-0.7-0.1-1.3-0.5-1.8C608.2,373.8,607.8,373.6,607.2,373.6z"/>
	<path fill="#C8CACC" d="M577.8,297h-10c-1.3,0-2.2,0.4-2.9,1.3c-0.7,0.8-0.9,2-0.9,3.6v24.4c0,1.6,0.2,2.7,0.9,3.5
		c0.7,0.8,1.6,1.2,2.9,1.2h10c1.3,0,2.4-0.3,3.1-1.2c0.7-0.8,1.1-1.9,1.1-3.5v-24.4c0-1.6-0.4-2.8-1.1-3.6
		C580.2,297.4,579.1,297,577.8,297z M578,327h-11v-26h11V327z"/>
	<path fill="#C8CACC" d="M577.8,355h-10c-1.3,0-2.2,0.4-2.9,1.3c-0.7,0.8-0.9,2-0.9,3.6v24.4c0,1.6,0.2,2.7,0.9,3.5
		c0.7,0.8,1.6,1.2,2.9,1.2h10c1.3,0,2.4-0.3,3.1-1.2c0.7-0.8,1.1-1.9,1.1-3.5v-24.4c0-1.6-0.4-2.8-1.1-3.6
		C580.2,355.4,579.1,355,577.8,355z M578,385h-11v-26h11V385z"/>
	<path fill="#C8CACC" d="M605,413h-10c-1.3,0-2.3,0.4-3,1.2c-0.7,0.8-1,2-1,3.6v24.4c0,1.6,0.3,2.7,1,3.5c0.7,0.8,1.6,1.2,3,1.2h10
		c1.3,0,2.3-0.3,3-1.2c0.7-0.8,1-1.9,1-3.5v-24.4c0-1.6-0.3-2.8-1-3.6C607.3,413.4,606.3,413,605,413z M605,443h-10v-26h10V443z"/>
	<path fill="#C8CACC" d="M577.8,239h-10c-1.3,0-2.2,0.4-2.9,1.3c-0.7,0.8-0.9,2-0.9,3.6v24.4c0,1.6,0.2,2.7,0.9,3.5
		c0.7,0.8,1.6,1.2,2.9,1.2h10c1.3,0,2.4-0.3,3.1-1.2c0.7-0.8,1.1-1.9,1.1-3.5v-24.4c0-1.6-0.4-2.8-1.1-3.6
		C580.2,239.4,579.1,239,577.8,239z M578,269h-11v-26h11V269z"/>
	<path fill="#C8CACC" d="M546.8,88.6c-0.6,0-1,0.2-1.3,0.6c-0.3,0.4-0.5,1-0.5,1.8v9h-4V70h-8.5c-0.6,0-1.1,0.2-1.5,0.6
		c-0.4,0.4-0.6,0.9-0.6,1.6c0,0.7,0.2,1,0.5,1.4c0.4,0.4,0.9,0.4,1.5,0.4h5.5v26h-5.5c-0.6,0-1.1,0.1-1.5,0.5
		c-0.4,0.4-0.6,0.9-0.6,1.5c0,0.7,0.2,1.1,0.6,1.5c0.4,0.4,0.9,0.5,1.5,0.5h14.1c0.6,0,1.3-0.1,1.7-0.5c0.4-0.4,0.8-0.8,0.8-1.5V91
		c0-0.7-0.4-1.3-0.7-1.8C548,88.8,547.3,88.6,546.8,88.6z"/>
</g>
<g id="ux">
</g>
<g id="disruptive">
</g>
<g id="helpapi">
</g>
<g id="significant">
</g>
<g id="allcontribute">
</g>
<g id="githubhelp">
</g>
<g id="microsoft">
</g>
<g id="json">
</g>
<g id="github">
</g>
<g id="scalability">
</g>
<g id="performance">
</g>
<g id="skillset">
</g>
<g id="wastedtime">
</g>
<g id="legacy">
</g>
<g id="notanengineer">
</g>
<g id="strategies">
</g>
<g id="pressure">
</g>
<g id="whatif">
</g>
<g id="turning_x5F_point">
</g>
<g id="tbt">
</g>
<g id="milkyway">
</g>
<g id="bubbles">
</g>
<g id="_x31_2345">
</g>
</svg>
