<?xml version="1.0" encoding="utf-8"?>
<!-- Generator: Adobe Illustrator 18.1.1, SVG Export Plug-In . SVG Version: 6.00 Build 0)  -->
<svg version="1.1" xmlns="http://www.w3.org/2000/svg" xmlns:xlink="http://www.w3.org/1999/xlink" x="0px" y="0px"
	 viewBox="0 0 767 471" enable-background="new 0 0 767 471" xml:space="preserve">
<g id="separate">
</g>
<g id="code">
</g>
<g id="ux">
</g>
<g id="disruptive">
</g>
<g id="helpapi">
</g>
<g id="significant">
</g>
<g id="allcontribute">
</g>
<g id="githubhelp">
</g>
<g id="microsoft">
</g>
<g id="json">
</g>
<g id="github">
</g>
<g id="scalability">
	<g>
		<g>
			<path fill="#262262" d="M107.4,71.1L77,46.8c-0.4-0.4-0.8-0.8-1-1.2c-0.2-0.4-0.3-0.8-0.3-1.2c0-1,0.6-1.8,1.7-2.5
				c1.1-0.7,2.4-1,3.9-1c0.7,0,1.3,0,1.7,0.1c0.4,0.1,0.8,0.3,1.3,0.6l30.6,19.1l30.5-19.1c0.4-0.2,0.8-0.4,1.2-0.5
				c0.4-0.1,1-0.2,1.8-0.2c1.5,0,2.8,0.3,3.9,1c1.1,0.7,1.7,1.5,1.7,2.5c0,0.4-0.1,0.8-0.3,1.2c-0.2,0.4-0.5,0.8-1,1.2L122,71.1
				c-0.7,0.6-1.6,1-2.8,1.2c-1.2,0.3-2.6,0.4-4.3,0.4c-1.6,0-3.1-0.2-4.4-0.4C109.2,72,108.1,71.6,107.4,71.1z"/>
		</g>
		<g>
			<path fill="#262262" d="M107.4,105.7L77,81.4c-0.4-0.4-0.8-0.8-1-1.2c-0.2-0.4-0.3-0.8-0.3-1.2c0-1,0.6-1.8,1.7-2.5
				c1.1-0.7,2.4-1,3.9-1c0.7,0,1.3,0,1.7,0.1c0.4,0.1,0.8,0.3,1.3,0.6l30.6,19.1l30.5-19.1c0.4-0.2,0.8-0.4,1.2-0.5
				c0.4-0.1,1-0.2,1.8-0.2c1.5,0,2.8,0.3,3.9,1c1.1,0.7,1.7,1.5,1.7,2.5c0,0.4-0.1,0.8-0.3,1.2c-0.2,0.4-0.5,0.8-1,1.2L122,105.7
				c-0.7,0.6-1.6,1-2.8,1.2c-1.2,0.3-2.6,0.4-4.3,0.4c-1.6,0-3.1-0.2-4.4-0.4C109.2,106.6,108.1,106.2,107.4,105.7z"/>
		</g>
		<g>
			<path fill="#1C75BC" d="M101.4,153l-60.7-48.6c-0.9-0.8-1.5-1.7-2-2.5c-0.4-0.8-0.7-1.7-0.7-2.5c0-2,1.1-3.7,3.4-5
				c2.3-1.3,4.9-2,7.8-2c1.5,0,2.6,0.1,3.4,0.3c0.8,0.2,1.6,0.6,2.5,1.1l61.2,38.3l60.9-38.3c0.7-0.5,1.5-0.8,2.4-1
				c0.9-0.2,2-0.3,3.5-0.3c2.9,0,5.5,0.7,7.8,2c2.3,1.3,3.4,3,3.4,5c0,0.8-0.2,1.7-0.7,2.5c-0.4,0.8-1.1,1.7-2,2.5L130.5,153
				c-1.3,1.1-3.2,1.9-5.6,2.5c-2.4,0.6-5.3,0.8-8.7,0.8c-3.2,0-6.1-0.3-8.8-0.9C104.9,154.8,102.8,154,101.4,153z"/>
		</g>
	</g>
	<g>
		<g>
			<path fill="#262262" d="M650.3,119.9l30.4,24.3c0.4,0.4,0.8,0.8,1,1.2c0.2,0.4,0.3,0.8,0.3,1.2c0,1-0.6,1.8-1.7,2.5
				c-1.1,0.7-2.4,1-3.9,1c-0.7,0-1.3,0-1.7-0.1c-0.4-0.1-0.8-0.3-1.3-0.6l-30.6-19.1l-30.5,19.1c-0.4,0.2-0.8,0.4-1.2,0.5
				c-0.4,0.1-1,0.2-1.8,0.2c-1.5,0-2.8-0.3-3.9-1c-1.1-0.7-1.7-1.5-1.7-2.5c0-0.4,0.1-0.8,0.3-1.2c0.2-0.4,0.5-0.8,1-1.2l30.6-24.3
				c0.7-0.6,1.6-1,2.8-1.2c1.2-0.3,2.6-0.4,4.3-0.4c1.6,0,3.1,0.2,4.4,0.4C648.5,118.9,649.5,119.3,650.3,119.9z"/>
		</g>
		<g>
			<path fill="#262262" d="M650.3,85.3l30.4,24.3c0.4,0.4,0.8,0.8,1,1.2c0.2,0.4,0.3,0.8,0.3,1.2c0,1-0.6,1.8-1.7,2.5
				c-1.1,0.7-2.4,1-3.9,1c-0.7,0-1.3,0-1.7-0.1c-0.4-0.1-0.8-0.3-1.3-0.6l-30.6-19.1l-30.5,19.1c-0.4,0.2-0.8,0.4-1.2,0.5
				c-0.4,0.1-1,0.2-1.8,0.2c-1.5,0-2.8-0.3-3.9-1c-1.1-0.7-1.7-1.5-1.7-2.5c0-0.4,0.1-0.8,0.3-1.2c0.2-0.4,0.5-0.8,1-1.2l30.6-24.3
				c0.7-0.6,1.6-1,2.8-1.2c1.2-0.3,2.6-0.4,4.3-0.4c1.6,0,3.1,0.2,4.4,0.4C648.5,84.4,649.5,84.8,650.3,85.3z"/>
		</g>
		<g>
			<path fill="#1C75BC" d="M656.3,38L717,86.6c0.9,0.8,1.5,1.7,2,2.5c0.4,0.8,0.7,1.7,0.7,2.5c0,2-1.1,3.7-3.4,5
				c-2.3,1.3-4.9,2-7.8,2c-1.5,0-2.6-0.1-3.4-0.3c-0.8-0.2-1.6-0.6-2.5-1.1l-61.2-38.3l-60.9,38.3c-0.7,0.5-1.5,0.8-2.4,1
				c-0.9,0.2-2,0.3-3.5,0.3c-2.9,0-5.5-0.7-7.8-2c-2.3-1.3-3.4-3-3.4-5c0-0.8,0.2-1.7,0.7-2.5c0.4-0.8,1.1-1.7,2-2.5L627.2,38
				c1.3-1.1,3.2-1.9,5.6-2.5c2.4-0.6,5.3-0.8,8.7-0.8c3.2,0,6.1,0.3,8.8,0.9C652.8,36.1,654.9,36.9,656.3,38z"/>
		</g>
	</g>
	<g>
		<g>
			<path fill="#262262" d="M632.6,370.9l-24.3,30.4c-0.4,0.4-0.8,0.8-1.2,1c-0.4,0.2-0.8,0.3-1.2,0.3c-1,0-1.8-0.6-2.5-1.7
				c-0.7-1.1-1-2.4-1-3.9c0-0.7,0-1.3,0.1-1.7c0.1-0.4,0.3-0.8,0.6-1.3l19.1-30.6L603,332.9c-0.2-0.4-0.4-0.8-0.5-1.2
				c-0.1-0.4-0.2-1-0.2-1.8c0-1.5,0.3-2.8,1-3.9c0.7-1.1,1.5-1.7,2.5-1.7c0.4,0,0.8,0.1,1.2,0.3c0.4,0.2,0.8,0.5,1.2,1l24.3,30.6
				c0.6,0.7,1,1.6,1.2,2.8c0.3,1.2,0.4,2.6,0.4,4.3c0,1.6-0.2,3.1-0.4,4.4C633.5,369.1,633.1,370.1,632.6,370.9z"/>
		</g>
		<g>
			<path fill="#262262" d="M667.1,370.9l-24.3,30.4c-0.4,0.4-0.8,0.8-1.2,1c-0.4,0.2-0.8,0.3-1.2,0.3c-1,0-1.8-0.6-2.5-1.7
				c-0.7-1.1-1-2.4-1-3.9c0-0.7,0-1.3,0.1-1.7c0.1-0.4,0.3-0.8,0.6-1.3l19.1-30.6l-19.1-30.5c-0.2-0.4-0.4-0.8-0.5-1.2
				c-0.1-0.4-0.2-1-0.2-1.8c0-1.5,0.3-2.8,1-3.9c0.7-1.1,1.5-1.7,2.5-1.7c0.4,0,0.8,0.1,1.2,0.3c0.4,0.2,0.8,0.5,1.2,1l24.3,30.6
				c0.6,0.7,1,1.6,1.2,2.8c0.3,1.2,0.4,2.6,0.4,4.3c0,1.6-0.2,3.1-0.4,4.4C668,369.1,667.6,370.1,667.1,370.9z"/>
		</g>
		<g>
			<path fill="#1C75BC" d="M714.5,376.9l-48.6,60.7c-0.8,0.9-1.7,1.5-2.5,2c-0.8,0.4-1.7,0.7-2.5,0.7c-2,0-3.7-1.1-5-3.4
				c-1.3-2.3-2-4.9-2-7.8c0-1.5,0.1-2.6,0.3-3.4c0.2-0.8,0.6-1.6,1.1-2.5l38.3-61.2L655.2,301c-0.5-0.7-0.8-1.5-1-2.4
				c-0.2-0.9-0.3-2-0.3-3.5c0-2.9,0.7-5.5,2-7.8c1.3-2.3,3-3.4,5-3.4c0.8,0,1.7,0.2,2.5,0.7c0.8,0.4,1.7,1.1,2.5,2l48.6,61.2
				c1.1,1.3,1.9,3.2,2.5,5.6c0.6,2.4,0.8,5.3,0.8,8.7c0,3.2-0.3,6.1-0.9,8.8C716.3,373.4,715.5,375.4,714.5,376.9z"/>
		</g>
	</g>
	<g>
		<g>
			<path fill="#262262" d="M117.6,353.3l24.3-30.4c0.4-0.4,0.8-0.8,1.2-1c0.4-0.2,0.8-0.3,1.2-0.3c1,0,1.8,0.6,2.5,1.7
				c0.7,1.1,1,2.4,1,3.9c0,0.7,0,1.3-0.1,1.7c-0.1,0.4-0.3,0.8-0.6,1.3l-19.1,30.6l19.1,30.5c0.2,0.4,0.4,0.8,0.5,1.2
				c0.1,0.4,0.2,1,0.2,1.8c0,1.5-0.3,2.8-1,3.9c-0.7,1.1-1.5,1.7-2.5,1.7c-0.4,0-0.8-0.1-1.2-0.3c-0.4-0.2-0.8-0.5-1.2-1l-24.3-30.6
				c-0.6-0.7-1-1.6-1.2-2.8c-0.3-1.2-0.4-2.6-0.4-4.3c0-1.6,0.2-3.1,0.4-4.4C116.7,355.1,117.1,354.1,117.6,353.3z"/>
		</g>
		<g>
			<path fill="#262262" d="M83.1,353.3l24.3-30.4c0.4-0.4,0.8-0.8,1.2-1c0.4-0.2,0.8-0.3,1.2-0.3c1,0,1.8,0.6,2.5,1.7
				c0.7,1.1,1,2.4,1,3.9c0,0.7,0,1.3-0.1,1.7c-0.1,0.4-0.3,0.8-0.6,1.3l-19.1,30.6l19.1,30.5c0.2,0.4,0.4,0.8,0.5,1.2
				c0.1,0.4,0.2,1,0.2,1.8c0,1.5-0.3,2.8-1,3.9c-0.7,1.1-1.5,1.7-2.5,1.7c-0.4,0-0.8-0.1-1.2-0.3c-0.4-0.2-0.8-0.5-1.2-1l-24.3-30.6
				c-0.6-0.7-1-1.6-1.2-2.8c-0.3-1.2-0.4-2.6-0.4-4.3c0-1.6,0.2-3.1,0.4-4.4C82.2,355.1,82.6,354.1,83.1,353.3z"/>
		</g>
		<g>
			<path fill="#1C75BC" d="M35.7,347.3l48.6-60.7c0.8-0.9,1.7-1.5,2.5-2c0.8-0.4,1.7-0.7,2.5-0.7c2,0,3.7,1.1,5,3.4
				c1.3,2.3,2,4.9,2,7.8c0,1.5-0.1,2.6-0.3,3.4c-0.2,0.8-0.6,1.6-1.1,2.5l-38.3,61.2L95,423.2c0.5,0.7,0.8,1.5,1,2.4
				c0.2,0.9,0.3,2,0.3,3.5c0,2.9-0.7,5.5-2,7.8c-1.3,2.3-3,3.4-5,3.4c-0.8,0-1.7-0.2-2.5-0.7c-0.8-0.4-1.7-1.1-2.5-2l-48.6-61.2
				c-1.1-1.3-1.9-3.2-2.5-5.6c-0.6-2.4-0.8-5.3-0.8-8.7c0-3.2,0.3-6.1,0.9-8.8C33.9,350.8,34.7,348.8,35.7,347.3z"/>
		</g>
	</g>
</g>
<g id="performance">
</g>
<g id="skillset">
</g>
<g id="wastedtime">
</g>
<g id="legacy">
</g>
<g id="notanengineer">
</g>
<g id="strategies">
</g>
<g id="pressure">
</g>
<g id="whatif">
</g>
<g id="turning_x5F_point">
</g>
<g id="tbt">
</g>
<g id="milkyway">
</g>
<g id="bubbles">
</g>
<g id="_x31_2345">
</g>
</svg>
